<!DOCTYPE svg PUBLIC "-//W3C//DTD SVG 1.1//EN" "http://www.w3.org/Graphics/SVG/1.1/DTD/svg11.dtd">
<!-- Uploaded to: SVG Repo, www.svgrepo.com, Transformed by: SVG Repo Mixer Tools -->
<svg height="800px" width="800px" version="1.1" id="Layer_1" xmlns="http://www.w3.org/2000/svg" xmlns:xlink="http://www.w3.org/1999/xlink" viewBox="0 0 512.713 512.713" xml:space="preserve" fill="#261744" stroke="#261744">
<g id="SVGRepo_bgCarrier" stroke-width="0"/>
<g id="SVGRepo_tracerCarrier" stroke-linecap="round" stroke-linejoin="round"/>
<g id="SVGRepo_iconCarrier"> <g transform="translate(1 1)"> <path style="fill:#5e4393;" d="M27.21,205.863c-2.56-0.853-5.12-2.56-7.68-4.267l0,0c29.867,36.693,47.787,84.48,47.787,132.267 v94.72h34.133v-181.76C72.436,225.49,44.276,212.69,27.21,205.863"/> <path style="fill:#5e4393;" d="M27.21,205.863c28.16,10.24,85.333,37.547,132.267,95.573c0,0,71.68,129.707,113.493,126.293 c0,0,104.107,2.56,213.333-23.893c16.213-4.267,22.187-23.893,13.653-37.547c-9.387-14.507-34.133-29.867-92.16-35.84 c-17.067-1.707-34.133,0-51.2,3.413c-21.333,5.12-55.467,7.68-77.653-16.213C243.956,280.957,71.583,72.743,57.076,82.13 c0,0-46.933,33.28-49.493,95.573C7.583,190.503,15.263,201.596,27.21,205.863"/> <path style="fill:#1f182f;" d="M92.916,112.85c0-0.853,0-1.707,0-3.413C74.143,90.663,61.343,79.57,57.076,82.13 c0,0-46.933,33.28-49.493,95.573c-0.853,12.8,7.68,23.893,19.627,29.013c5.12,1.707,11.093,4.267,17.067,6.827 C74.143,189.65,92.916,153.81,92.916,112.85"/> <path style="fill:#FFFFFF;" d="M52.81,206.716c-11.947-4.267-19.627-16.213-19.627-29.013c1.707-43.52,25.6-72.533,39.253-86.187 c-7.68-6.827-13.653-10.24-15.36-8.533c0,0-46.933,33.28-49.493,95.573c0,11.947,7.68,23.893,19.627,28.16H52.81z"/> <path style="fill:#2b215f;" d="M498.25,367.143c-9.387-14.507-34.133-29.867-92.16-35.84c-9.387-0.853-17.92-0.853-27.307,0h0.853 c58.027,5.973,82.773,21.333,92.16,35.84c9.387,13.653,2.56,33.28-13.653,37.547c-79.36,19.627-155.307,23.04-191.147,23.893 c1.707,0,2.56,0,4.267,0c0,0,104.107,2.56,213.333-23.893C500.81,400.423,507.636,380.797,498.25,367.143"/> <path d="M280.65,437.117c-4.267,0-7.68,0-8.533,0s-0.853,0-1.707,0l0,0c-44.373,0-109.227-114.347-118.613-130.56 c-45.227-56.32-99.84-81.92-128-93.013c-15.36-5.973-25.6-20.48-24.747-36.693c2.56-64.853,51.2-99.84,52.907-101.547 c2.56-1.707,4.267-1.707,6.827-1.707c15.36,0,61.44,48.64,190.293,198.827c15.36,18.773,28.16,33.28,34.987,40.107 c10.24,11.093,24.747,17.067,43.52,17.067c8.533,0,17.067-0.853,25.6-3.413c17.92-4.267,36.693-5.973,53.76-4.267 c51.2,5.12,84.48,18.773,98.987,40.107c5.973,9.387,7.68,20.48,3.413,30.72c-3.413,10.24-11.947,17.067-21.333,19.627 C395.85,435.41,306.25,437.117,280.65,437.117z M272.116,420.05L272.116,420.05c0,0,3.413,0,8.533,0 c24.747,0,112.64-1.707,202.24-23.893c4.267-0.853,7.68-4.267,9.387-8.533c1.707-5.12,1.707-11.093-1.707-15.36 c-7.68-11.947-29.013-26.453-86.187-32.427c-15.36-1.707-31.573,0-48.64,3.413c-10.24,2.56-20.48,3.413-29.867,3.413 c-23.893,0-42.667-7.68-56.32-23.04c-6.827-7.68-19.627-22.187-34.987-40.96C189.343,228.903,82.676,104.316,59.636,91.516 c-9.387,7.68-41.813,37.547-43.52,86.187c0,8.533,5.12,17.067,13.653,20.48c29.867,11.093,87.893,39.253,135.68,98.987l0.853,0.853 c26.453,46.933,77.653,122.027,104.107,122.027H272.116L272.116,420.05z"/> <path d="M326.73,389.33c-33.28,0-61.44-11.947-81.92-34.133c-6.827-7.68-18.773-22.187-35.84-40.96 c-7.68-8.533-15.36-18.773-24.747-29.013c-34.133-40.96-76.8-91.307-105.813-119.467c-3.413-3.413-3.413-8.533,0-11.947 s8.533-3.413,11.947,0c29.867,29.013,73.387,80.213,107.52,121.173c9.387,11.093,17.067,20.48,24.747,29.013 c16.213,19.627,28.16,33.28,34.987,40.96c23.04,25.6,60.587,34.133,102.4,24.747c4.267-0.853,9.387,1.707,10.24,5.973 c0.853,4.267-1.707,9.387-5.973,10.24C351.476,387.623,338.676,389.33,326.73,389.33z"/> <path d="M44.276,222.076c-0.853,0-2.56,0-3.413-0.853c-5.973-2.56-11.093-5.12-16.213-6.827c-15.36-5.973-25.6-20.48-24.747-36.693 C1.61,111.996,50.25,77.01,51.956,75.303c2.56-1.707,4.267-1.707,6.827-1.707c5.12,0,12.8,2.56,40.107,29.867 c1.707,1.707,2.56,4.267,2.56,5.973v0.853c0,0.853,0,1.707,0,2.56c0,41.813-18.773,81.067-52.053,106.667 C48.543,221.223,45.983,222.076,44.276,222.076z M59.636,91.516c-9.387,7.68-41.813,37.547-43.52,86.187 c0,8.533,5.12,17.067,13.653,20.48c4.267,1.707,8.533,3.413,12.8,5.12c26.453-23.04,41.813-55.467,41.813-89.6 C69.876,98.343,62.196,93.223,59.636,91.516z"/> <path d="M101.45,437.117H67.316c-5.12,0-8.533-3.413-8.533-8.533v-94.72c0-45.227-17.067-91.307-46.08-126.293 c-1.707-2.56-2.56-5.973-1.707-8.533c0.853-2.56,3.413-4.267,5.973-5.12s5.12,0,7.68,1.707c1.707,1.707,3.413,2.56,5.973,3.413 c17.92,6.827,46.08,19.627,76.8,41.813c2.56,1.707,3.413,4.267,3.413,6.827v180.907C109.983,433.703,106.57,437.117,101.45,437.117 z M75.85,420.05h17.067V251.09c-17.92-12.8-34.133-22.187-48.64-28.16c20.48,33.28,31.573,72.533,31.573,110.933V420.05z"/> </g> </g>
</svg>